<!DOCTYPE svg PUBLIC "-//W3C//DTD SVG 1.1//EN" "http://www.w3.org/Graphics/SVG/1.1/DTD/svg11.dtd">
<!-- Uploaded to: SVG Repo, www.svgrepo.com, Transformed by: SVG Repo Mixer Tools -->
<svg width="800px" height="800px" viewBox="0 0 24 24" xmlns="http://www.w3.org/2000/svg" fill="#6b53ff">
<g id="SVGRepo_bgCarrier" stroke-width="0"/>
<g id="SVGRepo_tracerCarrier" stroke-linecap="round" stroke-linejoin="round"/>
<g id="SVGRepo_iconCarrier"> <title>jquery</title> <rect width="24" height="24" fill="none"/> <path d="M22.88,10.41a5,5,0,0,1-6.43-7.66L17,2.37A5,5,0,0,0,23.34,10l-.46.44M21.1,14.5A7.5,7.5,0,0,1,11.46,3l.92-.64a7.5,7.5,0,0,0,9.53,11.36l-.81.78M20,19.38A10.5,10.5,0,1,1,6.47,3.29L7.58,2.5A10.49,10.49,0,0,0,21,18.43Z"/> </g>
</svg>